<svg width="70" height="28" viewBox="0 0 70 28" xmlns="http://www.w3.org/2000/svg">
  <title>
    Artboard
  </title>
  <g fill="none" fill-rule="evenodd">
    <path fill="#FFF" d="M0 0h69.18v28H0z"/>
    <path fill="#0072C6" d="M6.76 2.7h7.52l4.62 15.63h.1L22.13 2.7h5.68L23 25.24h-7.45L10.83 9.65h-.06L7.64 25.24H2M30 2.7h6l-1.7 8.62h7.14l1.78-8.62h6l-4.65 22.54h-6l2-9.65H33.4l-2 9.65h-6M65.14 7.8c-1.57-.71-3.28-1.05-5-1-2.39 0-4.33.35-4.33 2.16 0 3.2 8.75 2 8.75 8.85 0 6.23-5.78 7.85-11 7.85-2.376-.055-4.733-.446-7-1.16L48 19.88c1.716.88 3.622 1.322 5.55 1.29 1.87 0 4.81-.35 4.81-2.68 0-3.62-8.75-2.26-8.75-8.62 0-5.81 5.1-7.56 10-7.56 2.346-.113 4.692.227 6.91 1L65.14 7.8z"/>
  </g>
</svg>
